# xmcd CD database file
#
# Track frame offsets:
#	187
#	17702
#	29765
#	41720
#	58552
#	74277
#	97647
#	109090
#	132270
#
# Disc length: 1952 seconds
#
# Revision: 0
# Processed by: cddbd v1.5.2PL0 Copyright (c) Steve Scherf et al.
# Submitted via: CDex 1.70beta3
#
DISCID=74079e09
DTITLE=Picho and The Latin Soul Brothers - Tough!
DYEAR=1966
DGENRE=Jazz
TTITLE0=Cantelope Island
TTITLE1=Walk On By
TTITLE2=Just For Kicks
TTITLE3=And I Love Her
TTITLE4=Vietnam Mambo
TTITLE5=The Shadow Of Yoursmike
TTITLE6=Strange Thing Mambo
TTITLE7=Goldfinger
TTITLE8=Yesterday
EXTD=YEAR: 1966
EXTT0=
EXTT1=
EXTT2=
EXTT3=
EXTT4=
EXTT5=
EXTT6=
EXTT7=
EXTT8=
PLAYORDER=
